<?xml version="1.0" encoding="UTF-8"?>
<svg xmlns="http://www.w3.org/2000/svg" viewBox="0 0 400 400" width="800" height="800" role="img" aria-label="Charcoal Wash">
  <defs>
    <linearGradient id="bg" x1="0" y1="0" x2="1" y2="1">
      <stop offset="0" stop-color="#1a1a1a"/>
      <stop offset="1" stop-color="#0f1720"/>
    </linearGradient>
    <linearGradient id="shine" x1="0" y1="0" x2="0" y2="1">
      <stop offset="0" stop-color="#fff" stop-opacity=".35"/>
      <stop offset="1" stop-color="#fff" stop-opacity=".05"/>
    </linearGradient>
  </defs>
  <rect width="400" height="400" fill="url(#bg)"/>
  <circle cx="320" cy="70" r="90" fill="#888" fill-opacity=".18"/>
  <circle cx="60" cy="340" r="110" fill="#888" fill-opacity=".12"/>
  <path d="M180 50h40v40h30v250c0 16-14 30-30 30h-40c-16 0-30-14-30-30V90h30V50z" fill="#888" opacity=".95"/>
  <path d="M180 50h40v40h30v250c0 16-14 30-30 30h-40c-16 0-30-14-30-30V90h30V50z" fill="url(#shine)"/>
  <text x="200" y="36" text-anchor="middle" fill="#888" font-family="Georgia,serif" font-size="14" font-style="italic">urban blade</text>
  <text x="200" y="372" text-anchor="middle" fill="#fff" font-family="Arial,sans-serif" font-size="18" font-weight="700">Charcoal Wash</text>
</svg>